<?xml version="1.0" encoding="UTF-8"?>
<svg width="24px" height="24px" viewBox="0 0 24 24" version="1.1" xmlns="http://www.w3.org/2000/svg" xmlns:xlink="http://www.w3.org/1999/xlink">
    <title>mdpi/mail-icon</title>
    <g id="Page-1" stroke="none" stroke-width="1" fill="none" fill-rule="evenodd">
        <g id="login" transform="translate(-348.000000, -559.000000)">
            <g id="Group-3" transform="translate(23.000000, 542.000000)">
                <g id="mail-icon" transform="translate(325.000000, 17.000000)">
                    <polygon id="Path" points="0 0 24 0 24 24 0 24"></polygon>
                    <path d="M3,3 L21,3 C21.5522847,3 22,3.44771525 22,4 L22,20 C22,20.5522847 21.5522847,21 21,21 L3,21 C2.44771525,21 2,20.5522847 2,20 L2,4 C2,3.44771525 2.44771525,3 3,3 Z M12.061,11.662 L4.511,5 L19.5,5 L12.059,11.662 L12.061,11.662 Z M20,7.238 L12.072,14.338 L4,7.216 L4,19 L20,19 L20,7.238 Z" id="Shape" fill="#267E64"></path>
                </g>
            </g>
        </g>
    </g>
</svg>